<?xml version="1.0" encoding="utf-8"?>
<!-- Generator: Adobe Illustrator 20.1.0, SVG Export Plug-In . SVG Version: 6.00 Build 0)  -->
<svg version="1.1" xmlns="http://www.w3.org/2000/svg" xmlns:xlink="http://www.w3.org/1999/xlink" x="0px" y="0px"
	 viewBox="0 0 75 75" style="enable-background:new 0 0 75 75;" xml:space="preserve">
<style type="text/css">
	.st0{fill:#FFFFFF;}
	.st1{fill:#000000;}
</style>
<defs>

<mask id="letters">
	<rect fill="white" x="0" y="0" width="100%" height="100%" />
		<path class="st1" d="M31.3,40.3c0.5,0.6,1,1.2,1.4,1.9c1.1,1.5,2.2,2.9,3.3,4.4c0.7,0.9,1.4,1.9,2.1,2.8c0.3,0.3,0.3,0.7,0.2,1.1
			c-0.2,0.4-0.5,0.6-1,0.6c-6.9,0-13.7,0-20.6,0c-0.5,0-1.1-0.3-1.1-1.1c0-0.1,0-0.3,0-0.4c0-8.1,0-16.2,0-24.3c0-0.3,0-0.7,0.3-0.9
			c0.2-0.2,0.4-0.3,0.7-0.3c3.5,0,7.1,0,10.6,0c1.6,0,3.2,0.4,4.7,1.2c2,1,3.2,2.6,3.8,4.8c0.3,1.2,0.4,2.5,0.3,3.7
			c-0.2,1.7-0.7,3.3-1.9,4.6c-0.7,0.8-1.6,1.5-2.6,1.9C31.5,40.2,31.4,40.2,31.3,40.3z"/>
		<path class="st1" d="M58.1,36.1c0.5,0.3,1,0.6,1.5,1c1,0.8,1.7,1.9,2,3.1c0.4,1.2,0.5,2.5,0.3,3.7c-0.2,1.9-0.9,3.4-2.3,4.7
			c-0.8,0.7-1.8,1.3-2.9,1.6c-1,0.3-2,0.6-3.1,0.6C53,51,52.2,51,51.5,51c-3.1,0-6.3,0-9.4,0c-0.5,0-0.9-0.3-1-0.8
			c0-0.1,0-0.2,0-0.2c0-8.3,0-16.7,0-25c0-0.6,0.4-1,1-1c3.3,0,6.6,0,10,0c1.6,0,3.1,0.3,4.5,1.1c1.5,0.9,2.4,2.2,2.9,3.8
			c0.3,1.2,0.4,2.5,0.2,3.7C59.5,33.9,59,35,58.1,36.1C58.2,36.1,58.2,36.1,58.1,36.1z"/>
</mask>
</defs>
<g id="Capa_1">
	<g>
		<rect fill="white" x="0" y="0" width="100%" height="100%" rx="15" ry="15"  mask="url(#letters)" />
	</g>
</g>
</svg>
